<svg xmlns="http://www.w3.org/2000/svg" viewBox="0 0 428 428">
  <path d="M122.418 421.085c-8.331 8.331-21.839 8.331-30.17 0L6.915 335.752c-8.331-8.332-8.331-21.839 0-30.17 8.33-8.331 21.839-8.331 30.17 0l48.914 48.915V22C86 10.218 95.551.667 107.333.667s21.333 9.55 21.333 21.333v332.497l48.915-48.915c8.331-8.331 21.839-8.331 30.17 0 8.331 8.331 8.331 21.838 0 30.17l-85.333 85.333ZM290.119 22h82.428c5.385 0 10.628 0 15.068.362 4.877.398 10.632 1.338 16.422 4.288a42.662 42.662 0 0 1 18.646 18.646c2.95 5.79 3.89 11.545 4.29 16.422.362 4.44.36 9.684.36 15.068v82.428c0 5.384.002 10.628-.36 15.068-.4 4.876-1.34 10.632-4.29 16.422a42.659 42.659 0 0 1-18.646 18.645c-5.79 2.95-11.545 3.892-16.422 4.29-4.44.363-9.683.361-15.068.361H290.12c-5.384 0-10.628.002-15.067-.36-4.877-.4-10.633-1.34-16.423-4.29a42.659 42.659 0 0 1-18.645-18.646c-2.95-5.79-3.891-11.546-4.29-16.422-.363-4.44-.36-9.684-.36-15.069V76.787c0-5.385-.003-10.628.36-15.07.399-4.876 1.34-10.63 4.29-16.42a42.662 42.662 0 0 1 18.645-18.647c5.79-2.95 11.546-3.89 16.423-4.288 4.44-.362 9.683-.362 15.067-.362Zm-11.876 42.91c-.006.09-.015.183-.023.282-.203 2.487-.22 5.949-.22 12.275v81.066c0 6.326.017 9.788.22 12.275.008.099.017.193.023.281l.282.025c2.487.203 5.95.22 12.275.22h81.067c6.325 0 9.787-.017 12.275-.22l.281-.025.024-.281c.203-2.487.22-5.949.22-12.275V77.467c0-6.326-.017-9.788-.22-12.275a28.042 28.042 0 0 0-.026-.281 22.89 22.89 0 0 0-.28-.025c-2.487-.203-5.949-.22-12.274-.22H290.8c-6.325 0-9.788.017-12.275.22l-.282.025Zm11.876 189.757h39.762c5.384 0 10.628-.002 15.067.36 4.877.4 10.633 1.34 16.423 4.29a42.659 42.659 0 0 1 18.645 18.646c2.95 5.79 3.891 11.545 4.29 16.422.363 4.44.36 9.683.36 15.068v39.76c0 5.385.003 10.63-.36 15.069-.399 4.876-1.34 10.632-4.29 16.422a42.659 42.659 0 0 1-18.645 18.645c-5.79 2.95-11.546 3.892-16.423 4.29-4.44.363-9.683.361-15.067.361h-39.762c-5.384 0-10.628.002-15.067-.36-4.877-.4-10.633-1.34-16.423-4.29a42.659 42.659 0 0 1-18.645-18.646c-2.95-5.79-3.891-11.546-4.29-16.422-.363-4.44-.36-9.684-.36-15.068v-39.761c0-5.385-.003-10.628.36-15.068.399-4.877 1.34-10.632 4.29-16.422a42.659 42.659 0 0 1 18.645-18.646c5.79-2.95 11.546-3.89 16.423-4.29 4.44-.362 9.683-.36 15.067-.36Zm-11.876 42.91c-.006.09-.015.183-.023.281-.203 2.488-.22 5.95-.22 12.275v38.4c0 6.326.017 9.788.22 12.276.008.098.017.192.023.281l.282.024c2.487.202 5.95.22 12.275.22h38.4c6.325 0 9.788-.018 12.275-.22l.282-.024c.006-.09.015-.183.023-.281.203-2.488.22-5.95.22-12.276v-38.4c0-6.325-.017-9.787-.22-12.275-.008-.098-.017-.192-.023-.281l-.282-.024c-2.487-.203-5.95-.22-12.275-.22h-38.4c-6.325 0-9.788.017-12.275.22l-.282.024Z" fill="currentColor" fill-rule="evenodd"/>
</svg>