<?xml version="1.0" encoding="UTF-8"?>
<svg width="706px" height="155px" viewBox="0 0 706 155" version="1.1" xmlns="http://www.w3.org/2000/svg" xmlns:xlink="http://www.w3.org/1999/xlink">
    <title>Artboard</title>
    <g id="Artboard" stroke="none" stroke-width="1" fill="none" fill-rule="evenodd">
        <g id="Lightfin" transform="translate(213.664062, 21.144531)" fill="#FFFFFF" fill-rule="nonzero">
            <polygon id="Path" points="0 1.43554688 13.6035156 1.43554688 13.6035156 89.8925781 64.4628906 89.8925781 64.4628906 101.855469 0 101.855469"></polygon>
            <path d="M86.2207031,28.984375 L98.7304688,28.984375 L98.7304688,101.855469 L86.2207031,101.855469 L86.2207031,28.984375 Z M86.2207031,1.43554688 L98.7304688,1.43554688 L98.7304688,15.3808594 L86.2207031,15.3808594 L86.2207031,1.43554688 Z" id="Shape"></path>
            <path d="M153.164062,27.34375 C158.90625,27.34375 163.919271,28.7565104 168.203125,31.5820312 C170.527344,33.1770833 172.897135,35.5013021 175.3125,38.5546875 L175.3125,29.3261719 L186.660156,29.3261719 L186.660156,95.9082031 C186.660156,105.205078 185.292969,112.542318 182.558594,117.919922 C177.454427,127.854818 167.815755,132.822266 153.642578,132.822266 C145.758464,132.822266 139.127604,131.056315 133.75,127.524414 C128.372396,123.992513 125.364583,118.466797 124.726562,110.947266 L137.236328,110.947266 C137.828776,114.228516 139.013672,116.757812 140.791016,118.535156 C143.570964,121.269531 147.945964,122.636719 153.916016,122.636719 C163.349609,122.636719 169.52474,119.309896 172.441406,112.65625 C174.173177,108.736979 174.970703,101.741536 174.833984,91.6699219 C172.373047,95.406901 169.410807,98.186849 165.947266,100.009766 C162.483724,101.832682 157.903646,102.744141 152.207031,102.744141 C144.277344,102.744141 137.338867,99.930013 131.391602,94.3017578 C125.444336,88.6735026 122.470703,79.3652344 122.470703,66.3769531 C122.470703,54.1178385 125.467122,44.547526 131.459961,37.6660156 C137.452799,30.7845052 144.6875,27.34375 153.164062,27.34375 Z M175.3125,64.9414062 C175.3125,55.8723958 173.44401,49.1503906 169.707031,44.7753906 C165.970052,40.4003906 161.207682,38.2128906 155.419922,38.2128906 C146.761068,38.2128906 140.836589,42.2688802 137.646484,50.3808594 C135.960286,54.7102865 135.117188,60.3841146 135.117188,67.4023438 C135.117188,75.6510417 136.791992,81.9287109 140.141602,86.2353516 C143.491211,90.5419922 147.991536,92.6953125 153.642578,92.6953125 C162.483724,92.6953125 168.704427,88.7076823 172.304688,80.7324219 C174.309896,76.2207031 175.3125,70.9570312 175.3125,64.9414062 Z" id="Shape"></path>
            <path d="M215.185547,1.09375 L227.490234,1.09375 L227.490234,38.5546875 C230.406901,34.8632812 233.027344,32.265625 235.351562,30.7617188 C239.316406,28.1640625 244.261068,26.8652344 250.185547,26.8652344 C260.804036,26.8652344 268.004557,30.5794271 271.787109,38.0078125 C273.837891,42.0638021 274.863281,47.6920573 274.863281,54.8925781 L274.863281,101.855469 L262.216797,101.855469 L262.216797,55.7128906 C262.216797,50.3352865 261.533203,46.3932292 260.166016,43.8867188 C257.932943,39.8763021 253.740234,37.8710938 247.587891,37.8710938 C242.483724,37.8710938 237.858073,39.625651 233.710938,43.1347656 C229.563802,46.6438802 227.490234,53.2747396 227.490234,63.0273438 L227.490234,101.855469 L215.185547,101.855469 L215.185547,1.09375 Z" id="Path"></path>
            <path d="M305.507812,8.203125 L317.949219,8.203125 L317.949219,28.6425781 L329.638672,28.6425781 L329.638672,38.6914062 L317.949219,38.6914062 L317.949219,86.4746094 C317.949219,89.0266927 318.815104,90.7356771 320.546875,91.6015625 C321.503906,92.1028646 323.098958,92.3535156 325.332031,92.3535156 C325.924479,92.3535156 326.5625,92.3421224 327.246094,92.3193359 C327.929688,92.2965495 328.727214,92.2395833 329.638672,92.1484375 L329.638672,101.855469 C328.225911,102.265625 326.756185,102.561849 325.229492,102.744141 C323.702799,102.926432 322.050781,103.017578 320.273438,103.017578 C314.53125,103.017578 310.634766,101.547852 308.583984,98.6083984 C306.533203,95.6689453 305.507812,91.8522135 305.507812,87.1582031 L305.507812,38.6914062 L295.595703,38.6914062 L295.595703,28.6425781 L305.507812,28.6425781 L305.507812,8.203125 Z" id="Path"></path>
            <path d="M355.019531,17.5 C355.201823,12.3958333 356.090495,8.65885417 357.685547,6.2890625 C360.556641,2.09635417 366.09375,0 374.296875,0 C375.071615,0 375.869141,0.0227864583 376.689453,0.068359375 C377.509766,0.113932292 378.44401,0.182291667 379.492188,0.2734375 L379.492188,11.484375 C378.216146,11.3932292 377.293294,11.336263 376.723633,11.3134766 C376.153971,11.2906901 375.61849,11.2792969 375.117188,11.2792969 C371.380208,11.2792969 369.147135,12.2477214 368.417969,14.1845703 C367.688802,16.1214193 367.324219,21.0546875 367.324219,28.984375 L379.492188,28.984375 L379.492188,38.6914062 L367.1875,38.6914062 L367.1875,101.855469 L355.019531,101.855469 L355.019531,38.6914062 L344.833984,38.6914062 L344.833984,28.984375 L355.019531,28.984375 L355.019531,17.5 Z M391.318359,15.3808594 L391.318359,1.43554688 L403.623047,1.43554688 L403.623047,15.3808594 L391.318359,15.3808594 Z M391.318359,28.984375 L403.623047,28.984375 L403.623047,101.855469 L391.318359,101.855469 L391.318359,28.984375 Z" id="Shape"></path>
            <path d="M431.943359,28.6425781 L443.632812,28.6425781 L443.632812,39.0332031 C447.096354,34.749349 450.764974,31.6731771 454.638672,29.8046875 C458.51237,27.9361979 462.81901,27.0019531 467.558594,27.0019531 C477.949219,27.0019531 484.967448,30.625 488.613281,37.8710938 C490.61849,41.8359375 491.621094,47.5097656 491.621094,54.8925781 L491.621094,101.855469 L479.111328,101.855469 L479.111328,55.7128906 C479.111328,51.2467448 478.450521,47.6464844 477.128906,44.9121094 C474.941406,40.3548177 470.976562,38.0761719 465.234375,38.0761719 C462.317708,38.0761719 459.92513,38.3723958 458.056641,38.9648438 C454.684245,39.9674479 451.722005,41.9726562 449.169922,44.9804688 C447.119141,47.3958333 445.786133,49.8909505 445.170898,52.4658203 C444.555664,55.0406901 444.248047,58.7207031 444.248047,63.5058594 L444.248047,101.855469 L431.943359,101.855469 L431.943359,28.6425781 Z" id="Path"></path>
        </g>
        <path d="M0,0 L67,0 C66.8333333,16 63.1666667,30.6666667 56,44 C48.8333333,57.3333333 38.1666667,69.3333333 24,80 L67,80 L67,146 L0,146 L0,0 M80,146 L146,146 L146,0 L80,0 L80,66 L124,66 C110.342183,74.7111824 99.6755163,86.0445158 92,100 C84.3244837,113.955484 80.3244837,129.288818 80,146 Z" id="Combined-Shape" fill="#FFFFFF"></path>
    </g>
</svg>