<?xml version="1.0" encoding="UTF-8"?>
<svg width="1364px" height="155px" viewBox="0 0 1364 155" version="1.1" xmlns="http://www.w3.org/2000/svg" xmlns:xlink="http://www.w3.org/1999/xlink">
    <title>Artboard</title>
    <g id="Artboard" stroke="none" stroke-width="1" fill="none" fill-rule="evenodd">
        <g id="Lightfin-Datagrid" transform="translate(213.664062, 21.144531)" fill="#FFFFFF" fill-rule="nonzero">
            <polygon id="Path" points="0 1.43554688 13.6035156 1.43554688 13.6035156 89.8925781 64.4628906 89.8925781 64.4628906 101.855469 0 101.855469"></polygon>
            <path d="M86.2207031,28.984375 L98.7304688,28.984375 L98.7304688,101.855469 L86.2207031,101.855469 L86.2207031,28.984375 Z M86.2207031,1.43554688 L98.7304688,1.43554688 L98.7304688,15.3808594 L86.2207031,15.3808594 L86.2207031,1.43554688 Z" id="Shape"></path>
            <path d="M153.164062,27.34375 C158.90625,27.34375 163.919271,28.7565104 168.203125,31.5820312 C170.527344,33.1770833 172.897135,35.5013021 175.3125,38.5546875 L175.3125,29.3261719 L186.660156,29.3261719 L186.660156,95.9082031 C186.660156,105.205078 185.292969,112.542318 182.558594,117.919922 C177.454427,127.854818 167.815755,132.822266 153.642578,132.822266 C145.758464,132.822266 139.127604,131.056315 133.75,127.524414 C128.372396,123.992513 125.364583,118.466797 124.726562,110.947266 L137.236328,110.947266 C137.828776,114.228516 139.013672,116.757812 140.791016,118.535156 C143.570964,121.269531 147.945964,122.636719 153.916016,122.636719 C163.349609,122.636719 169.52474,119.309896 172.441406,112.65625 C174.173177,108.736979 174.970703,101.741536 174.833984,91.6699219 C172.373047,95.406901 169.410807,98.186849 165.947266,100.009766 C162.483724,101.832682 157.903646,102.744141 152.207031,102.744141 C144.277344,102.744141 137.338867,99.930013 131.391602,94.3017578 C125.444336,88.6735026 122.470703,79.3652344 122.470703,66.3769531 C122.470703,54.1178385 125.467122,44.547526 131.459961,37.6660156 C137.452799,30.7845052 144.6875,27.34375 153.164062,27.34375 Z M175.3125,64.9414062 C175.3125,55.8723958 173.44401,49.1503906 169.707031,44.7753906 C165.970052,40.4003906 161.207682,38.2128906 155.419922,38.2128906 C146.761068,38.2128906 140.836589,42.2688802 137.646484,50.3808594 C135.960286,54.7102865 135.117188,60.3841146 135.117188,67.4023438 C135.117188,75.6510417 136.791992,81.9287109 140.141602,86.2353516 C143.491211,90.5419922 147.991536,92.6953125 153.642578,92.6953125 C162.483724,92.6953125 168.704427,88.7076823 172.304688,80.7324219 C174.309896,76.2207031 175.3125,70.9570312 175.3125,64.9414062 Z" id="Shape"></path>
            <path d="M215.185547,1.09375 L227.490234,1.09375 L227.490234,38.5546875 C230.406901,34.8632812 233.027344,32.265625 235.351562,30.7617188 C239.316406,28.1640625 244.261068,26.8652344 250.185547,26.8652344 C260.804036,26.8652344 268.004557,30.5794271 271.787109,38.0078125 C273.837891,42.0638021 274.863281,47.6920573 274.863281,54.8925781 L274.863281,101.855469 L262.216797,101.855469 L262.216797,55.7128906 C262.216797,50.3352865 261.533203,46.3932292 260.166016,43.8867188 C257.932943,39.8763021 253.740234,37.8710938 247.587891,37.8710938 C242.483724,37.8710938 237.858073,39.625651 233.710938,43.1347656 C229.563802,46.6438802 227.490234,53.2747396 227.490234,63.0273438 L227.490234,101.855469 L215.185547,101.855469 L215.185547,1.09375 Z" id="Path"></path>
            <path d="M305.507812,8.203125 L317.949219,8.203125 L317.949219,28.6425781 L329.638672,28.6425781 L329.638672,38.6914062 L317.949219,38.6914062 L317.949219,86.4746094 C317.949219,89.0266927 318.815104,90.7356771 320.546875,91.6015625 C321.503906,92.1028646 323.098958,92.3535156 325.332031,92.3535156 C325.924479,92.3535156 326.5625,92.3421224 327.246094,92.3193359 C327.929688,92.2965495 328.727214,92.2395833 329.638672,92.1484375 L329.638672,101.855469 C328.225911,102.265625 326.756185,102.561849 325.229492,102.744141 C323.702799,102.926432 322.050781,103.017578 320.273438,103.017578 C314.53125,103.017578 310.634766,101.547852 308.583984,98.6083984 C306.533203,95.6689453 305.507812,91.8522135 305.507812,87.1582031 L305.507812,38.6914062 L295.595703,38.6914062 L295.595703,28.6425781 L305.507812,28.6425781 L305.507812,8.203125 Z" id="Path"></path>
            <path d="M355.019531,17.5 C355.201823,12.3958333 356.090495,8.65885417 357.685547,6.2890625 C360.556641,2.09635417 366.09375,0 374.296875,0 C375.071615,0 375.869141,0.0227864583 376.689453,0.068359375 C377.509766,0.113932292 378.44401,0.182291667 379.492188,0.2734375 L379.492188,11.484375 C378.216146,11.3932292 377.293294,11.336263 376.723633,11.3134766 C376.153971,11.2906901 375.61849,11.2792969 375.117188,11.2792969 C371.380208,11.2792969 369.147135,12.2477214 368.417969,14.1845703 C367.688802,16.1214193 367.324219,21.0546875 367.324219,28.984375 L379.492188,28.984375 L379.492188,38.6914062 L367.1875,38.6914062 L367.1875,101.855469 L355.019531,101.855469 L355.019531,38.6914062 L344.833984,38.6914062 L344.833984,28.984375 L355.019531,28.984375 L355.019531,17.5 Z M391.318359,15.3808594 L391.318359,1.43554688 L403.623047,1.43554688 L403.623047,15.3808594 L391.318359,15.3808594 Z M391.318359,28.984375 L403.623047,28.984375 L403.623047,101.855469 L391.318359,101.855469 L391.318359,28.984375 Z" id="Shape"></path>
            <path d="M431.943359,28.6425781 L443.632812,28.6425781 L443.632812,39.0332031 C447.096354,34.749349 450.764974,31.6731771 454.638672,29.8046875 C458.51237,27.9361979 462.81901,27.0019531 467.558594,27.0019531 C477.949219,27.0019531 484.967448,30.625 488.613281,37.8710938 C490.61849,41.8359375 491.621094,47.5097656 491.621094,54.8925781 L491.621094,101.855469 L479.111328,101.855469 L479.111328,55.7128906 C479.111328,51.2467448 478.450521,47.6464844 477.128906,44.9121094 C474.941406,40.3548177 470.976562,38.0761719 465.234375,38.0761719 C462.317708,38.0761719 459.92513,38.3723958 458.056641,38.9648438 C454.684245,39.9674479 451.722005,41.9726562 449.169922,44.9804688 C447.119141,47.3958333 445.786133,49.8909505 445.170898,52.4658203 C444.555664,55.0406901 444.248047,58.7207031 444.248047,63.5058594 L444.248047,101.855469 L431.943359,101.855469 L431.943359,28.6425781 Z" id="Path"></path>
            <path d="M608.896484,90.234375 C613.499349,90.234375 617.281901,89.7558594 620.244141,88.7988281 C625.530599,87.0214844 629.860026,83.6035156 633.232422,78.5449219 C635.921224,74.4889323 637.858073,69.2936198 639.042969,62.9589844 C639.726562,59.1764323 640.068359,55.6673177 640.068359,52.4316406 C640.068359,39.9902344 637.596029,30.328776 632.651367,23.4472656 C627.706706,16.5657552 619.742839,13.125 608.759766,13.125 L584.628906,13.125 L584.628906,90.234375 L608.896484,90.234375 Z M570.957031,1.43554688 L611.630859,1.43554688 C625.439453,1.43554688 636.149089,6.33463542 643.759766,16.1328125 C650.55013,24.9739583 653.945312,36.2988281 653.945312,50.1074219 C653.945312,60.7714844 651.940104,70.4101562 647.929688,79.0234375 C640.865885,94.2447917 628.720703,101.855469 611.494141,101.855469 L570.957031,101.855469 L570.957031,1.43554688 Z" id="Shape"></path>
            <path d="M689.238281,82.3730469 C689.238281,85.9277344 690.537109,88.7304688 693.134766,90.78125 C695.732422,92.8320312 698.808594,93.8574219 702.363281,93.8574219 C706.692708,93.8574219 710.885417,92.8548177 714.941406,90.8496094 C721.777344,87.5227865 725.195312,82.0768229 725.195312,74.5117188 L725.195312,64.5996094 C723.691406,65.5566406 721.754557,66.3541667 719.384766,66.9921875 C717.014974,67.6302083 714.690755,68.0859375 712.412109,68.359375 L704.960938,69.3164062 C700.494792,69.9088542 697.145182,70.843099 694.912109,72.1191406 C691.129557,74.2610677 689.238281,77.6790365 689.238281,82.3730469 Z M719.042969,57.4902344 C721.86849,57.125651 723.759766,55.9407552 724.716797,53.9355469 C725.263672,52.8417969 725.537109,51.2695312 725.537109,49.21875 C725.537109,45.0260417 724.044596,41.9840495 721.05957,40.0927734 C718.074544,38.2014974 713.802083,37.2558594 708.242188,37.2558594 C701.816406,37.2558594 697.259115,38.9876302 694.570312,42.4511719 C693.066406,44.3652344 692.086589,47.2135417 691.630859,50.9960938 L680.146484,50.9960938 C680.374349,41.9726562 683.302409,35.694987 688.930664,32.1630859 C694.558919,28.6311849 701.08724,26.8652344 708.515625,26.8652344 C717.128906,26.8652344 724.124349,28.5058594 729.501953,31.7871094 C734.833984,35.0683594 737.5,40.172526 737.5,47.0996094 L737.5,89.2773438 C737.5,90.5533854 737.762044,91.578776 738.286133,92.3535156 C738.810221,93.1282552 739.915365,93.515625 741.601562,93.515625 C742.148438,93.515625 742.763672,93.4814453 743.447266,93.4130859 C744.130859,93.3447266 744.860026,93.2421875 745.634766,93.1054688 L745.634766,102.197266 C743.720703,102.744141 742.26237,103.085938 741.259766,103.222656 C740.257161,103.359375 738.889974,103.427734 737.158203,103.427734 C732.919922,103.427734 729.84375,101.923828 727.929688,98.9160156 C726.927083,97.3209635 726.220703,95.0651042 725.810547,92.1484375 C723.304036,95.4296875 719.703776,98.2779948 715.009766,100.693359 C710.315755,103.108724 705.143229,104.316406 699.492188,104.316406 C692.701823,104.316406 687.15332,102.254232 682.84668,98.1298828 C678.540039,94.0055339 676.386719,88.844401 676.386719,82.6464844 C676.386719,75.8561198 678.505859,70.5924479 682.744141,66.8554688 C686.982422,63.1184896 692.542318,60.8170573 699.423828,59.9511719 L719.042969,57.4902344 Z" id="Shape"></path>
            <path d="M770.126953,8.203125 L782.568359,8.203125 L782.568359,28.6425781 L794.257812,28.6425781 L794.257812,38.6914062 L782.568359,38.6914062 L782.568359,86.4746094 C782.568359,89.0266927 783.434245,90.7356771 785.166016,91.6015625 C786.123047,92.1028646 787.718099,92.3535156 789.951172,92.3535156 C790.54362,92.3535156 791.181641,92.3421224 791.865234,92.3193359 C792.548828,92.2965495 793.346354,92.2395833 794.257812,92.1484375 L794.257812,101.855469 C792.845052,102.265625 791.375326,102.561849 789.848633,102.744141 C788.32194,102.926432 786.669922,103.017578 784.892578,103.017578 C779.150391,103.017578 775.253906,101.547852 773.203125,98.6083984 C771.152344,95.6689453 770.126953,91.8522135 770.126953,87.1582031 L770.126953,38.6914062 L760.214844,38.6914062 L760.214844,28.6425781 L770.126953,28.6425781 L770.126953,8.203125 Z" id="Path"></path>
            <path d="M825.996094,82.3730469 C825.996094,85.9277344 827.294922,88.7304688 829.892578,90.78125 C832.490234,92.8320312 835.566406,93.8574219 839.121094,93.8574219 C843.450521,93.8574219 847.643229,92.8548177 851.699219,90.8496094 C858.535156,87.5227865 861.953125,82.0768229 861.953125,74.5117188 L861.953125,64.5996094 C860.449219,65.5566406 858.51237,66.3541667 856.142578,66.9921875 C853.772786,67.6302083 851.448568,68.0859375 849.169922,68.359375 L841.71875,69.3164062 C837.252604,69.9088542 833.902995,70.843099 831.669922,72.1191406 C827.88737,74.2610677 825.996094,77.6790365 825.996094,82.3730469 Z M855.800781,57.4902344 C858.626302,57.125651 860.517578,55.9407552 861.474609,53.9355469 C862.021484,52.8417969 862.294922,51.2695312 862.294922,49.21875 C862.294922,45.0260417 860.802409,41.9840495 857.817383,40.0927734 C854.832357,38.2014974 850.559896,37.2558594 845,37.2558594 C838.574219,37.2558594 834.016927,38.9876302 831.328125,42.4511719 C829.824219,44.3652344 828.844401,47.2135417 828.388672,50.9960938 L816.904297,50.9960938 C817.132161,41.9726562 820.060221,35.694987 825.688477,32.1630859 C831.316732,28.6311849 837.845052,26.8652344 845.273438,26.8652344 C853.886719,26.8652344 860.882161,28.5058594 866.259766,31.7871094 C871.591797,35.0683594 874.257812,40.172526 874.257812,47.0996094 L874.257812,89.2773438 C874.257812,90.5533854 874.519857,91.578776 875.043945,92.3535156 C875.568034,93.1282552 876.673177,93.515625 878.359375,93.515625 C878.90625,93.515625 879.521484,93.4814453 880.205078,93.4130859 C880.888672,93.3447266 881.617839,93.2421875 882.392578,93.1054688 L882.392578,102.197266 C880.478516,102.744141 879.020182,103.085938 878.017578,103.222656 C877.014974,103.359375 875.647786,103.427734 873.916016,103.427734 C869.677734,103.427734 866.601562,101.923828 864.6875,98.9160156 C863.684896,97.3209635 862.978516,95.0651042 862.568359,92.1484375 C860.061849,95.4296875 856.461589,98.2779948 851.767578,100.693359 C847.073568,103.108724 841.901042,104.316406 836.25,104.316406 C829.459635,104.316406 823.911133,102.254232 819.604492,98.1298828 C815.297852,94.0055339 813.144531,88.844401 813.144531,82.6464844 C813.144531,75.8561198 815.263672,70.5924479 819.501953,66.8554688 C823.740234,63.1184896 829.30013,60.8170573 836.181641,59.9511719 L855.800781,57.4902344 Z" id="Shape"></path>
            <path d="M930.263672,27.34375 C936.005859,27.34375 941.01888,28.7565104 945.302734,31.5820312 C947.626953,33.1770833 949.996745,35.5013021 952.412109,38.5546875 L952.412109,29.3261719 L963.759766,29.3261719 L963.759766,95.9082031 C963.759766,105.205078 962.392578,112.542318 959.658203,117.919922 C954.554036,127.854818 944.915365,132.822266 930.742188,132.822266 C922.858073,132.822266 916.227214,131.056315 910.849609,127.524414 C905.472005,123.992513 902.464193,118.466797 901.826172,110.947266 L914.335938,110.947266 C914.928385,114.228516 916.113281,116.757812 917.890625,118.535156 C920.670573,121.269531 925.045573,122.636719 931.015625,122.636719 C940.449219,122.636719 946.624349,119.309896 949.541016,112.65625 C951.272786,108.736979 952.070312,101.741536 951.933594,91.6699219 C949.472656,95.406901 946.510417,98.186849 943.046875,100.009766 C939.583333,101.832682 935.003255,102.744141 929.306641,102.744141 C921.376953,102.744141 914.438477,99.930013 908.491211,94.3017578 C902.543945,88.6735026 899.570312,79.3652344 899.570312,66.3769531 C899.570312,54.1178385 902.566732,44.547526 908.55957,37.6660156 C914.552409,30.7845052 921.787109,27.34375 930.263672,27.34375 Z M952.412109,64.9414062 C952.412109,55.8723958 950.54362,49.1503906 946.806641,44.7753906 C943.069661,40.4003906 938.307292,38.2128906 932.519531,38.2128906 C923.860677,38.2128906 917.936198,42.2688802 914.746094,50.3808594 C913.059896,54.7102865 912.216797,60.3841146 912.216797,67.4023438 C912.216797,75.6510417 913.891602,81.9287109 917.241211,86.2353516 C920.59082,90.5419922 925.091146,92.6953125 930.742188,92.6953125 C939.583333,92.6953125 945.804036,88.7076823 949.404297,80.7324219 C951.409505,76.2207031 952.412109,70.9570312 952.412109,64.9414062 Z" id="Shape"></path>
            <path d="M992.626953,28.6425781 L1004.31641,28.6425781 L1004.31641,41.2890625 C1005.27344,38.828125 1007.62044,35.8317057 1011.35742,32.2998047 C1015.0944,28.7679036 1019.40104,27.0019531 1024.27734,27.0019531 C1024.50521,27.0019531 1024.89258,27.0247396 1025.43945,27.0703125 C1025.98633,27.1158854 1026.92057,27.2070312 1028.24219,27.34375 L1028.24219,40.3320312 C1027.51302,40.1953125 1026.84082,40.1041667 1026.22559,40.0585938 C1025.61035,40.0130208 1024.93815,39.9902344 1024.20898,39.9902344 C1018.01107,39.9902344 1013.2487,41.9840495 1009.92188,45.9716797 C1006.59505,49.9593099 1004.93164,54.5507812 1004.93164,59.7460938 L1004.93164,101.855469 L992.626953,101.855469 L992.626953,28.6425781 Z" id="Path"></path>
            <path d="M1048.90625,28.984375 L1061.41602,28.984375 L1061.41602,101.855469 L1048.90625,101.855469 L1048.90625,28.984375 Z M1048.90625,1.43554688 L1061.41602,1.43554688 L1061.41602,15.3808594 L1048.90625,15.3808594 L1048.90625,1.43554688 Z" id="Shape"></path>
            <path d="M1097.80273,66.1035156 C1097.80273,73.9420573 1099.46615,80.5045573 1102.79297,85.7910156 C1106.11979,91.077474 1111.45182,93.7207031 1118.78906,93.7207031 C1124.48568,93.7207031 1129.16829,91.2711589 1132.83691,86.3720703 C1136.50553,81.4729818 1138.33984,74.4433594 1138.33984,65.2832031 C1138.33984,56.031901 1136.44857,49.1845703 1132.66602,44.7412109 C1128.88346,40.2978516 1124.21224,38.0761719 1118.65234,38.0761719 C1112.45443,38.0761719 1107.43001,40.4459635 1103.5791,45.1855469 C1099.72819,49.9251302 1097.80273,56.8977865 1097.80273,66.1035156 Z M1116.32812,27.34375 C1121.93359,27.34375 1126.6276,28.5286458 1130.41016,30.8984375 C1132.59766,32.265625 1135.08138,34.6582031 1137.86133,38.0761719 L1137.86133,1.09375 L1149.6875,1.09375 L1149.6875,101.855469 L1138.61328,101.855469 L1138.61328,91.6699219 C1135.74219,96.1816406 1132.34701,99.4401042 1128.42773,101.445312 C1124.50846,103.450521 1120.01953,104.453125 1114.96094,104.453125 C1106.80339,104.453125 1099.73958,101.023763 1093.76953,94.1650391 C1087.79948,87.3063151 1084.81445,78.1803385 1084.81445,66.7871094 C1084.81445,56.1230469 1087.53743,46.883138 1092.9834,39.0673828 C1098.42936,31.2516276 1106.21094,27.34375 1116.32812,27.34375 Z" id="Shape"></path>
        </g>
        <rect id="Rectangle" fill-opacity="0" fill="#FFFFFF" x="0" y="0" width="146" height="146"></rect>
        <path d="M0,0 L67,0 C66.8333333,16 63.1666667,30.6666667 56,44 C48.8333333,57.3333333 38.1666667,69.3333333 24,80 L67,80 L67,146 L0,146 L0,0 M80,146 L146,146 L146,0 L80,0 L80,66 L124,66 C110.342183,74.7111824 99.6755163,86.0445158 92,100 C84.3244837,113.955484 80.3244837,129.288818 80,146 Z" id="Combined-Shape" fill="#FFFFFF"></path>
    </g>
</svg>